{"title":"Slipknot  (1999) - CD remaster by MC Lurken 16-bit 44.1kHz flac","uid":7404492,"size":564396971,"categoryP":"audio","categoryS":"flac","magnet":"?xt=urn:btih:8ca39aee0164526c705586c3edfc344044b30c0b&amp;dn=Slipknot++%281999%29+-+CD+remaster+by+MC+Lurken+16-bit+44.1kHz+flac&amp;tr=udp%3A%2F%2Ftracker.openbittorrent.com%3A80&amp;tr=udp%3A%2F%2Fopen.demonii.com%3A1337&amp;tr=udp%3A%2F%2Ftracker.coppersurfer.tk%3A6969&amp;tr=udp%3A%2F%2Fexodus.desync.com%3A6969","seeders":1,"leechers":0,"uploader":"beavis39","files":-1,"time":1341200723,"description":"Slipknot  (1999) - CD remaster by MC Lurken (a.k.a. Beavis39)\n\n\n\n!!!!!!!!!!!!!THIS IS NOT AN OFFICIAL REMASTER, THIS IS A FAN RELEASE!!!!!!!!!!!!!!\n!!!!!!!!!!!!!THIS IS NOT AN OFFICIAL REMASTER, THIS IS A FAN RELEASE!!!!!!!!!!!!!!\n!!!!!!!!!!!!!THIS IS NOT AN OFFICIAL REMASTER, THIS IS A FAN RELEASE!!!!!!!!!!!!!!\n\n\n\n1 - 742617000027\n2- (sic)\n3 - Eyeless\n4 - Wait and Bleed\n5 - Surfacing\n6 - Spit It Out\n7 - Tattered &amp; Torn\n8 - Frail Limb Nursery\n9 - Purity\n10 - Liberate\n11 - Prosthetics\n12 - No Life\n13 - Diluted\n14 - Only One\n15 - Scissors\n16 - Me Inside\n17 - Get This\n18 - Snap (Demo)\n19 - Interloper (Demo)\n20 - Despise (Demo)\n21 - Untitled\n22 - Eeyore\n\n\n\nfoobar2000 1.1.13 / Dynamic Range Meter 1.1.1\nlog date: 2012-07-01 08:17:55\n\n--------------------------------------------------------------------------------\nAnalyzed: ? / ?\n--------------------------------------------------------------------------------\n\nDR         Peak         RMS     Duration Track\n--------------------------------------------------------------------------------\nDR10      -2.96 dB   -16.00 dB      0:36 ?-01 - 742617000027\nDR6       -0.16 dB    -7.28 dB      3:20 ?-02 - (sic)\nDR6       -0.17 dB    -7.36 dB      3:56 ?-03 - Eyeless\nDR6       -0.16 dB    -7.47 dB      2:28 ?-04 - Wait and Bleed\nDR6       -0.15 dB    -7.72 dB      3:38 ?-05 - Surfacing\nDR6       -0.15 dB    -7.18 dB      2:40 ?-06 - Spit It Out\nDR5       -0.33 dB    -7.53 dB      2:54 ?-07 - Tattered &amp; Torn\nDR11      -1.34 dB   -14.66 dB      0:45 ?-08 - Frail Limb Nursery\nDR6       -0.32 dB    -7.74 dB      4:14 ?-09 - Purity\nDR6       -0.18 dB    -7.39 dB      3:07 ?-10 - Liberate\nDR6       -0.18 dB    -7.93 dB      4:58 ?-11 - Prosthetics\nDR7       -0.17 dB    -7.87 dB      2:47 ?-12 - No Life\nDR6       -0.17 dB    -7.19 dB      3:23 ?-13 - Diluted\nDR6       -0.13 dB    -7.87 dB      2:26 ?-14 - Only One\nDR6       -0.13 dB    -8.89 dB      8:23 ?-15 - Scissors\nDR6       -0.08 dB    -7.92 dB      2:39 ?-16 - Me Inside\nDR6       -0.15 dB    -7.90 dB      2:03 ?-17 - Get This\nDR6       -0.08 dB    -6.99 dB      2:42 ?-18 - Snap (Demo)\nDR6       -0.70 dB    -8.66 dB      2:18 ?-19 - Interloper (Demo)\nDR7       -0.08 dB    -8.08 dB      3:41 ?-20 - Despise (Demo)\nDR10      -1.62 dB   -17.59 dB      3:07 ?-21 - Untitled\nDR6       -0.08 dB    -7.89 dB      2:48 ?-22 - Eeyore\n--------------------------------------------------------------------------------\n\nNumber of tracks:  22\nOfficial DR value: DR7\n\nSamplerate:        44100 Hz\nChannels:          2\nBits per sample:   16\nBitrate:           1411 kbps\nCodec:             PCM\n\n\n\nenjoy :)","torrent":{"xt":"urn:btih:8ca39aee0164526c705586c3edfc344044b30c0b","amp;dn":"Slipknot++%281999%29+-+CD+remaster+by+MC+Lurken+16-bit+44.1kHz+flac","amp;tr":["udp%3A%2F%2Ftracker.openbittorrent.com%3A80","udp%3A%2F%2Fopen.demonii.com%3A1337","udp%3A%2F%2Ftracker.coppersurfer.tk%3A6969","udp%3A%2F%2Fexodus.desync.com%3A6969"],"infoHash":"8ca39aee0164526c705586c3edfc344044b30c0b","infoHashBuffer":{"type":"Buffer","data":[140,163,154,238,1,100,82,108,112,85,134,195,237,252,52,64,68,179,12,11]},"announce":[],"urlList":[]}}